<svg id="Amazon" xmlns="http://www.w3.org/2000/svg" width="113.094" height="34.082" viewBox="0 0 113.094 34.082">
  <g id="Group_45612" data-name="Group 45612" transform="translate(15.911 20.565)">
    <path id="Path_27834" data-name="Path 27834" d="M257.9,322.758c-6.571,4.849-16.1,7.428-24.3,7.428a43.975,43.975,0,0,1-29.684-11.324c-.615-.555-.066-1.315.673-.884a59.744,59.744,0,0,0,29.7,7.881,59.093,59.093,0,0,0,22.655-4.636C258.061,320.752,258.992,321.956,257.9,322.758Z" transform="translate(-203.654 -316.67)" fill="#f90" fill-rule="evenodd"/>
    <path id="Path_27835" data-name="Path 27835" d="M334.7,317.843c-.841-1.076-5.556-.51-7.674-.257-.641.077-.741-.483-.162-.889,3.761-2.642,9.924-1.879,10.64-.995s-.189,7.072-3.714,10.02c-.542.454-1.058.212-.817-.387C333.764,323.354,335.539,318.919,334.7,317.843Z" transform="translate(-277.713 -314.875)" fill="#f90" fill-rule="evenodd"/>
  </g>
  <path id="Path_27836" data-name="Path 27836" d="M327.23,267.569V265a.634.634,0,0,1,.651-.65h11.505a.642.642,0,0,1,.664.648v2.2a3.6,3.6,0,0,1-.866,1.616l-5.96,8.509a12.757,12.757,0,0,1,6.562,1.409,1.173,1.173,0,0,1,.61,1v2.739c0,.378-.413.814-.847.587a13.251,13.251,0,0,0-12.157.022c-.4.213-.819-.217-.819-.595v-2.6a3.1,3.1,0,0,1,.428-1.764l6.9-9.906h-6.012A.64.64,0,0,1,327.23,267.569Z" transform="translate(-261.858 -263.847)" fill-rule="evenodd"/>
  <path id="Path_27837" data-name="Path 27837" d="M216.256,283.1h-3.5a.66.66,0,0,1-.626-.592l0-17.965a.66.66,0,0,1,.675-.647h3.26a.66.66,0,0,1,.637.6v2.346h.065a4.618,4.618,0,0,1,4.607-3.327c2.189,0,3.561,1.059,4.542,3.327a5.17,5.17,0,0,1,8.887-1.361c1.111,1.512.882,3.7.882,5.633l0,11.337a.661.661,0,0,1-.675.647h-3.5a.657.657,0,0,1-.629-.645v-9.524a22.975,22.975,0,0,0-.1-3.365,1.825,1.825,0,0,0-2.058-1.55,2.321,2.321,0,0,0-2.092,1.475,10.869,10.869,0,0,0-.326,3.44v9.522a.66.66,0,0,1-.675.647h-3.5a.658.658,0,0,1-.629-.645l0-9.524c0-2,.327-4.952-2.156-4.952-2.516,0-2.418,2.873-2.418,4.952l0,9.522A.66.66,0,0,1,216.256,283.1Z" transform="translate(-192.854 -263.345)" fill-rule="evenodd"/>
  <path id="Path_27838" data-name="Path 27838" d="M373.5,263.519c5.2,0,8.005,4.461,8.005,10.131,0,5.481-3.1,9.829-8.005,9.829-5.1,0-7.875-4.461-7.875-10.018C365.627,267.866,368.437,263.519,373.5,263.519Zm.033,3.667c-2.581,0-2.745,3.516-2.745,5.708s-.033,6.881,2.712,6.881c2.713,0,2.843-3.781,2.843-6.087a16.606,16.606,0,0,0-.523-4.763A2.192,2.192,0,0,0,373.534,267.186Z" transform="translate(-285.405 -263.345)" fill-rule="evenodd"/>
  <path id="Path_27839" data-name="Path 27839" d="M416.332,283.1h-3.487a.657.657,0,0,1-.628-.645l-.006-17.972a.663.663,0,0,1,.673-.586h3.247a.665.665,0,0,1,.622.5v2.748h.066c.98-2.457,2.352-3.629,4.77-3.629a4.59,4.59,0,0,1,4.084,2.117c.915,1.437.915,3.856.915,5.595v11.3a.664.664,0,0,1-.671.566h-3.509a.66.66,0,0,1-.623-.566v-9.754c0-1.966.229-4.839-2.189-4.839a2.289,2.289,0,0,0-2.025,1.436,7.982,7.982,0,0,0-.556,3.4v9.674A.67.67,0,0,1,416.332,283.1Z" transform="translate(-313.494 -263.345)" fill-rule="evenodd"/>
  <path id="Path_27840" data-name="Path 27840" d="M289.462,274.258a6.872,6.872,0,0,1-.655,3.713,2.843,2.843,0,0,1-2.423,1.591c-1.342,0-2.129-1.023-2.129-2.538,0-2.981,2.674-3.523,5.206-3.523Zm3.529,8.534a.725.725,0,0,1-.827.081,8.552,8.552,0,0,1-2.006-2.332,6.938,6.938,0,0,1-5.771,2.544c-2.947,0-5.239-1.818-5.239-5.455a5.946,5.946,0,0,1,3.733-5.721c1.9-.834,4.552-.985,6.582-1.213v-.455a4.48,4.48,0,0,0-.426-2.538,2.339,2.339,0,0,0-1.965-.909,2.666,2.666,0,0,0-2.813,2.1.738.738,0,0,1-.608.643l-3.393-.367a.616.616,0,0,1-.522-.731c.78-4.116,4.5-5.36,7.828-5.36a7.941,7.941,0,0,1,5.272,1.743c1.7,1.591,1.539,3.713,1.539,6.024V276.3a4.78,4.78,0,0,0,1.321,3.244.66.66,0,0,1-.012.93c-.715.6-1.985,1.7-2.684,2.325Z" transform="translate(-233.262 -263.081)" fill-rule="evenodd"/>
  <path id="Path_27841" data-name="Path 27841" d="M173.894,274.258a6.867,6.867,0,0,1-.655,3.713,2.842,2.842,0,0,1-2.423,1.591c-1.342,0-2.128-1.023-2.128-2.538,0-2.981,2.674-3.523,5.206-3.523Zm3.529,8.534a.725.725,0,0,1-.827.081,8.548,8.548,0,0,1-2.007-2.332,6.938,6.938,0,0,1-5.771,2.544c-2.947,0-5.239-1.818-5.239-5.455a5.946,5.946,0,0,1,3.733-5.721c1.9-.834,4.552-.985,6.581-1.213v-.455a4.486,4.486,0,0,0-.425-2.538,2.339,2.339,0,0,0-1.965-.909,2.665,2.665,0,0,0-2.813,2.1.739.739,0,0,1-.609.643l-3.392-.367a.615.615,0,0,1-.522-.731c.779-4.116,4.5-5.36,7.827-5.36a7.94,7.94,0,0,1,5.272,1.743c1.7,1.591,1.539,3.713,1.539,6.024V276.3a4.782,4.782,0,0,0,1.321,3.244.66.66,0,0,1-.011.93c-.715.6-1.986,1.7-2.684,2.325Z" transform="translate(-163.58 -263.081)" fill-rule="evenodd"/>
</svg>
