<svg xmlns="http://www.w3.org/2000/svg" xmlns:xlink="http://www.w3.org/1999/xlink" width="24" height="30" viewBox="0 0 24 30">
  <defs>
    <clipPath id="clip-path">
      <rect id="Rectangle_23285" data-name="Rectangle 23285" width="24" height="30" transform="translate(745 303)" fill="#fff"/>
    </clipPath>
  </defs>
  <g id="arrow_1" data-name="arrow 1" transform="translate(-745 -303)" clip-path="url(#clip-path)">
    <path id="Path_83923" data-name="Path 83923" d="M0,7.557s.129.113.367.333c.117.106.265.238.435.4s.393.31.624.5a18.2,18.2,0,0,0,4.238,2.48,7.733,7.733,0,0,0,.722.284c.246.084.5.185.76.268.525.151,1.062.325,1.633.439.56.144,1.153.219,1.754.314l.915.091c.306.03.624.026.938.042a17.715,17.715,0,0,0,3.86-.325,16.6,16.6,0,0,0,3.811-1.27A19.959,19.959,0,0,0,23.3,9.164c.45-.367.9-.7,1.289-1.066.2-.181.4-.34.582-.525s.355-.359.529-.529.329-.355.488-.525.306-.344.454-.507c.272-.352.544-.669.786-.99.227-.325.454-.628.654-.922s.37-.582.541-.843A27.1,27.1,0,0,0,29.907.805c.246-.548.378-.805.378-.805s0,.28-.064.892A12.926,12.926,0,0,1,29.555,3.7l-.4.994c-.155.348-.344.707-.537,1.093s-.454.764-.7,1.179l-.431.609c-.151.2-.3.423-.473.628s-.348.416-.529.631-.393.416-.6.631a17.865,17.865,0,0,1-1.365,1.266,17.771,17.771,0,0,1-3.588,2.261,16.037,16.037,0,0,1-4.34,1.346,17.378,17.378,0,0,1-4.325.121c-.344-.045-.688-.068-1.024-.129s-.662-.125-.99-.185a19.148,19.148,0,0,1-1.864-.518c-.6-.185-1.153-.435-1.694-.658-.265-.117-.518-.253-.771-.378A7.906,7.906,0,0,1,5.2,12.2a16.763,16.763,0,0,1-4-3.176C1,8.8.809,8.6.665,8.419S.4,8.075.3,7.947c-.194-.254-.3-.39-.3-.39" transform="translate(742.541 322.582) rotate(-39)" fill="#f57400"/>
    <path id="Path_83924" data-name="Path 83924" d="M2.779,6.858s-.4-.616-.9-1.6c-.25-.491-.525-1.081-.794-1.728-.064-.163-.129-.329-.2-.5L.843,2.9.82,2.835.783,2.714.624,2.2C.416,1.508.2.76,0,0L.99.091c.41.041.81.087,1.18.132.189.026.37.049.552.072L2.96.329l.129.023c.344.064.658.136.941.212a8.463,8.463,0,0,1,1.365.5,3.751,3.751,0,0,1,.983.624A3.756,3.756,0,0,1,5.289,2.1a8.369,8.369,0,0,1-1.437.212c-.3.019-.616.026-.964.019H2.726v.026l-.011-.011a.057.057,0,0,0-.072,0l-.023.026-.008.011.011.068.015.136c.023.178.042.355.06.529.072.7.1,1.346.113,1.9.023,1.1-.034,1.834-.034,1.834" transform="translate(746.071 328.456) rotate(-39)" fill="#f57400"/>
  </g>
</svg>
