<svg xmlns="http://www.w3.org/2000/svg" xmlns:xlink="http://www.w3.org/1999/xlink" width="26" height="30" viewBox="0 0 26 30">
  <defs>
    <clipPath id="clip-path">
      <rect id="Rectangle_23285" data-name="Rectangle 23285" width="30" height="26" transform="translate(742 310)" fill="#fff"/>
    </clipPath>
  </defs>
  <g id="arrow_2" data-name="arrow 2" transform="translate(-310 772) rotate(-90)" clip-path="url(#clip-path)">
    <path id="Union_1" data-name="Union 1" d="M-8440.681,141.587c-.5-.225-1.09-.511-1.706-.844-.152-.087-.308-.174-.471-.263l-.112-.074-.06-.036-.105-.07-.447-.3c-.6-.407-1.236-.852-1.87-1.316l.827-.553c.346-.225.685-.441,1-.64.163-.1.318-.193.476-.29l.205-.123.114-.064c.308-.167.6-.309.867-.428a8.5,8.5,0,0,1,1.373-.471,3.816,3.816,0,0,1,1.157-.134,3.757,3.757,0,0,1-.587,1.007,8.379,8.379,0,0,1-.983,1.068q-.324.3-.737.621l-.062.051a18.272,18.272,0,0,0,4.316-.723,7.4,7.4,0,0,0,.739-.235c.244-.089.5-.17.759-.269.5-.214,1.03-.415,1.546-.687.525-.24,1.034-.555,1.56-.861l.77-.5c.256-.17.5-.373.754-.557a17.7,17.7,0,0,0,2.8-2.681,16.531,16.531,0,0,0,2.162-3.387,19.75,19.75,0,0,0,1.295-3.554c.119-.568.259-1.111.331-1.641.04-.265.1-.515.12-.774s.052-.5.079-.744.033-.483.051-.714.019-.46.031-.68c-.008-.445,0-.863-.01-1.263-.03-.4-.045-.776-.072-1.13s-.081-.685-.11-.994a27.564,27.564,0,0,0-.545-2.715c-.154-.581-.214-.863-.214-.863s.176.218.511.733a12.863,12.863,0,0,1,1.25,2.6c.1.32.2.659.316,1.024s.176.767.269,1.189.13.88.2,1.356l.049.744c.009.25.038.515.027.786s-.008.543-.013.822-.044.57-.069.869a17.686,17.686,0,0,1-.265,1.842,17.76,17.76,0,0,1-1.365,4.017,16.114,16.114,0,0,1-2.524,3.777,17.452,17.452,0,0,1-3.285,2.815c-.3.182-.579.382-.878.545s-.594.32-.886.479a19.342,19.342,0,0,1-1.774.771c-.583.233-1.17.388-1.731.553-.279.076-.562.129-.837.193s-.543.123-.808.155a16.853,16.853,0,0,1-4.381.137c.085.083.168.165.25.247.5.5.924.983,1.282,1.405.71.841,1.128,1.448,1.128,1.448l.006,0S-8439.674,142.036-8440.681,141.587Z" transform="matrix(0.921, 0.391, -0.391, 0.921, 8571.065, 3499.428)" fill="#f57400"/>
  </g>
</svg>
