<svg xmlns="http://www.w3.org/2000/svg" xmlns:xlink="http://www.w3.org/1999/xlink" width="80" height="88" viewBox="0 0 80 88">
  <defs>
    <clipPath id="clip-path">
      <rect id="Rectangle_9983" data-name="Rectangle 9983" width="80" height="88" transform="translate(895 435)" fill="#fff8f8"/>
    </clipPath>
  </defs>
  <g id="Group_54943" data-name="Group 54943" transform="translate(-600 -362)">
    <circle id="Ellipse_5272" data-name="Ellipse 5272" cx="40" cy="40" r="40" transform="translate(600 365)" fill="#faf7ff"/>
    <g id="Mask_Group_12" data-name="Mask Group 12" transform="translate(-295 -73)" clip-path="url(#clip-path)">
      <g id="Group_52708" data-name="Group 52708" transform="translate(-92.593 87.209)">
        <g id="Group_52679" data-name="Group 52679" transform="translate(987.593 345.402)">
          <g id="Group_52662" data-name="Group 52662" transform="translate(0 10.006) rotate(-8)">
            <g id="Group_52660" data-name="Group 52660" transform="translate(0 0)">
              <path id="Path_33195" data-name="Path 33195" d="M22.73,3.883l-4.188-2.86C16.128-.625,13-.241,11.549,1.88L.728,17.724C-.721,19.847.061,22.9,2.473,24.549l4.188,2.861Z" transform="matrix(0.985, -0.174, 0.174, 0.985, 7.757, 31.89)" fill="#fff" stroke="#9e52f6" stroke-width="0.5"/>
              <g id="Group_52648" data-name="Group 52648" transform="translate(64.338 29.389)">
                <path id="Path_33196" data-name="Path 33196" d="M6.282.522C4.575-.689,1.762.278,0,2.682L6.236,7.117C8,4.714,7.989,1.733,6.282.522Z" transform="translate(0 0)" fill="#9e52f6" stroke="#9e52f6" stroke-width="0.5"/>
              </g>
              <g id="Group_52649" data-name="Group 52649" transform="translate(47.833 31.818)">
                <path id="Path_33197" data-name="Path 33197" d="M16.452,0A23.635,23.635,0,0,1,0,10.042a68.654,68.654,0,0,0,.964,8.974c14.364.53,21.831-14.408,21.831-14.408L16.452,0" transform="translate(0 0)" fill="#e1cff7" stroke="#9e52f6" stroke-width="0.5"/>
              </g>
              <path id="Path_33198" data-name="Path 33198" d="M.409,30.181s-2.7,10.467,5.759,14.24c0,0,10.045.832,18.836-3.122,2.487-1.312,12.234-6.908,14.2-16.178s1.256-14.008,1.256-14.008A21.507,21.507,0,0,1,18.813,0a5.225,5.225,0,0,0-3.125,4.443c-.216.563-7.762,5.322-8.018,11a12.486,12.486,0,0,0,.384,4.112C7.81,20.5,7.785,24.807.409,30.181Z" transform="translate(9.642 31.01)" fill="#ebddfc" stroke="#9e52f6" stroke-width="0.5"/>
              <path id="Path_33199" data-name="Path 33199" d="M0,5.524s.623,5.747,2.675,7.514a3.064,3.064,0,0,0,4.757-1.312,3.827,3.827,0,0,0-.022-1.968S15.542,9.491,16.276,0C13.674,1.6,10.2,4.089,0,5.524Z" transform="translate(22.763 69.719)" fill="#ae75f0" stroke="#9e52f6" stroke-width="0.5"/>
              <path id="Path_33200" data-name="Path 33200" d="M7.633,13.309s.776,4.183-2.378,5.558S-.124,16.995.005,12.895L.132,7.053S.206,3.034,3.7,3.137A59.967,59.967,0,0,0,9.957-.1S9.673,2.225,9.707,2.7,9.7,8,11.032,9.857s2.734,3.691,4.779,4.229C15.81,14.086,10.263,14.127,7.633,13.309Z" transform="translate(0 61.345)" fill="#ae75f0" stroke="#9e52f6" stroke-linejoin="round" stroke-width="0.5"/>
              <g id="Group_52650" data-name="Group 52650" transform="translate(26.175 0.698)">
                <circle id="Ellipse_5271" data-name="Ellipse 5271" cx="20.827" cy="20.827" r="20.827" transform="translate(0 0)" fill="#f6efff" stroke="#9e52f6" stroke-width="0.5"/>
              </g>
              <g id="Group_52650-2" data-name="Group 52650" transform="translate(27.101 0)">
                <circle id="Ellipse_5271-2" data-name="Ellipse 5271" cx="20.827" cy="20.827" r="20.827" transform="translate(0 0)" fill="#f6efff"/>
              </g>
              <g id="Group_52651" data-name="Group 52651" transform="matrix(0.985, -0.174, 0.174, 0.985, 35.617, 8.166)">
                <g id="Group_52663" data-name="Group 52663" transform="translate(0 0)">
                  <path id="Path_33201" data-name="Path 33201" d="M.008,13.8c.273,7.273,7.836,12.883,16.887,12.537A18.762,18.762,0,0,0,27.7,22.548a20,20,0,0,0,1.333-7.979A19.957,19.957,0,0,0,22.746,1.143,18.091,18.091,0,0,0,15.911.007C6.854.354-.265,6.529.008,13.8Z" fill="#d9ccea" opacity="0.997"/>
                  <path id="Path_33213" data-name="Path 33213" d="M.007,13.8c.246,7.27,7.076,12.884,15.254,12.537a15.944,15.944,0,0,0,9.753-3.788A19.233,19.233,0,0,0,26.662,14.1C26.48,8.77,23.614,3.335,20.539,1.143A14.916,14.916,0,0,0,14.365.007C6.189.354-.24,6.528.007,13.8Z" transform="translate(2.818 0)" fill="#fff"/>
                </g>
              </g>
              <g id="Group_52658" data-name="Group 52658" transform="translate(17.278 34.931)">
                <path id="Path_33208" data-name="Path 33208" d="M14.294,6.841A11.275,11.275,0,0,0,11.617,8.47,4.946,4.946,0,0,0,9.9,11.416c-.328,2.472,1.737,4.079,3.1,5.829-1.6,2.432-4.042,4.593-5.987,6.776L5.121,22.19C2.257,19.41-.34,15.711.036,11.524A11.087,11.087,0,0,1,2.563,5.683,21.7,21.7,0,0,1,9.789,0" transform="translate(0 0)" fill="none" stroke="#9e52f6" stroke-linecap="round" stroke-width="0.5"/>
              </g>
              <g id="Group_52659" data-name="Group 52659" transform="translate(24.504 52.242)">
                <path id="Path_33209" data-name="Path 33209" d="M7.269,7.284C8.9,5.414,8.283,2.149,5.821,0L0,6.9C2.46,9.052,5.637,9.154,7.269,7.284Z" transform="translate(0 0)" fill="#9e52f6" stroke="#9e52f6" stroke-width="0.5"/>
              </g>
              <path id="Path_33211" data-name="Path 33211" d="M0,0" transform="translate(64.463 32.881)" fill="none" stroke="#1a1818" stroke-width="1"/>
              <path id="Path_33212" data-name="Path 33212" d="M0,0" transform="translate(64.663 32.852)" fill="none" stroke="#1a1818" stroke-width="1"/>
            </g>
            <g id="Group_52661" data-name="Group 52661" transform="translate(15.375 42.338)">
              <path id="Path_33214" data-name="Path 33214" d="M34.745,0C34.8,3.584,35.77,18.327,24.386,26.851,17.044,32.349,6.714,33.245,0,33.071" transform="translate(0 0)" fill="none" stroke="#9e52f6" stroke-linecap="round" stroke-width="0.5"/>
            </g>
          </g>
          <g id="Group_52677" data-name="Group 52677" transform="translate(43.679 56.468) rotate(-4.012)">
            <path id="Path_33227" data-name="Path 33227" d="M12.662,0S9.222,2,2.725.512L0,7.27s6.453,2.319,10.811.283A38.5,38.5,0,0,0,12.662,0Z" transform="translate(0 0)" fill="#9e52f6"/>
          </g>
        </g>
      </g>
    </g>
  </g>
</svg>
