<svg id="HP" xmlns="http://www.w3.org/2000/svg" width="52.372" height="52.376" viewBox="0 0 52.372 52.376">
  <path id="Path_27834" data-name="Path 27834" d="M27.037,53.226c-.261,0-.52,0-.778-.012l5.352-14.708h7.365A3.61,3.61,0,0,0,42.13,36.3l5.806-15.947A3.313,3.313,0,0,0,44.612,15.6H34.393L25.821,39.161h0l-4.86,13.354a26.192,26.192,0,0,1-.99-50.7L14.956,15.6h0L6.615,38.5h5.55l7.089-19.46h4.171L16.335,38.5h5.541l6.606-18.157A3.313,3.313,0,0,0,25.16,15.6H20.5L25.86.878C26.252.86,26.643.85,27.033.85a26.185,26.185,0,0,1,0,52.37Zm15.843-34.2h-4.17l-5.838,16.02h4.17Z" transform="translate(-0.846 -0.85)" fill="#4987ce"/>
</svg>
