<svg id="Nokia" xmlns="http://www.w3.org/2000/svg" width="113.094" height="19.062" viewBox="0 0 113.094 19.062">
  <path id="Nokia-2" data-name="Nokia" d="M5.445,18.949H0V.43H9.418l10.8,13.826V.43h5.445V18.949H16.441l-11-14.062V18.949m46.277-5.727c0,2.574-.455,3.462-1.209,4.313-1.155,1.267-2.836,1.648-6.075,1.648h-9.3c-3.239,0-4.922-.382-6.076-1.648-.753-.851-1.209-1.739-1.209-4.313V6.083c0-2.573.455-3.459,1.209-4.312C30.22.5,31.9.122,35.141.122h9.3c3.239,0,4.92.382,6.075,1.65.754.852,1.209,1.739,1.209,4.312v7.139M44.21,14.492c1.244,0,1.682-.073,1.98-.345.279-.253.4-.58.4-1.668V6.827c0-1.089-.123-1.412-.4-1.667-.3-.273-.736-.345-1.98-.345H35.369c-1.244,0-1.682.072-1.979.345-.28.254-.4.578-.4,1.667v5.652c0,1.089.123,1.415.4,1.668.3.271.735.345,1.979.345H44.21M59.636.43V18.949h-5.69V.43h5.69m9.613,0h7.512L66.622,9.092l11.435,9.858H70.019L59.636,9.291,69.249.43m9.858,0H84.8V18.949H79.106m27.387,0-1.684-3.226H93.8l-1.664,3.225H85.848L95.935.43h7.074l10.085,18.519h-6.6M95.776,11.7h7.075L99.313,5,95.776,11.7" transform="translate(0 -0.122)" fill="#1c4598"/>
</svg>
